<svg width="36" height="36" viewBox="0 0 36 36" fill="none" xmlns="http://www.w3.org/2000/svg">
<g clip-path="url(#clip0_6_102)">
<mask id="mask0_6_102" style="mask-type:luminance" maskUnits="userSpaceOnUse" x="0" y="0" width="36" height="36">
<path d="M36 0H0V36H36V0Z" fill="white"/>
</mask>
<g mask="url(#mask0_6_102)">
<path d="M18 34.5C27.1127 34.5 34.5 27.1127 34.5 18C34.5 8.8873 27.1127 1.5 18 1.5C8.8873 1.5 1.5 8.8873 1.5 18C1.5 27.1127 8.8873 34.5 18 34.5Z" stroke="black" stroke-width="3"/>
<path d="M17.5 20C20.5376 20 23 17.5376 23 14.5C23 11.4624 20.5376 9 17.5 9C14.4624 9 12 11.4624 12 14.5C12 17.5376 14.4624 20 17.5 20Z" stroke="black" stroke-width="2"/>
<path d="M28.5 30C28.5 30.8161 27.8369 31.922 25.9379 32.9128C24.1114 33.8657 21.4842 34.5 18.5 34.5C15.5158 34.5 12.8886 33.8657 11.0621 32.9128C9.16312 31.922 8.5 30.8161 8.5 30C8.5 29.1839 9.16312 28.078 11.0621 27.0872C12.8886 26.1343 15.5158 25.5 18.5 25.5C21.4842 25.5 24.1114 26.1343 25.9379 27.0872C27.8369 28.078 28.5 29.1839 28.5 30Z" stroke="black" stroke-width="3"/>
</g>
</g>
<defs>
<clipPath id="clip0_6_102">
<rect width="36" height="36" fill="white"/>
</clipPath>
</defs>
</svg>
