<svg width="127" height="91" viewBox="0 0 127 91" fill="none" xmlns="http://www.w3.org/2000/svg">
<path d="M84 30H43C35.8203 30 30 35.8203 30 43V78C30 85.1797 35.8203 91 43 91H84C91.1797 91 97 85.1797 97 78V43C97 35.8203 91.1797 30 84 30Z" fill="#24B600"/>
<path d="M60.9668 2.07286C62.4404 0.867078 64.5596 0.867075 66.0332 2.07286L109.821 37.9043C112.73 40.2849 111.047 45 107.288 45H19.7118C15.9528 45 14.2695 40.2849 17.1787 37.9043L60.9668 2.07286Z" fill="#24B600"/>
<path d="M72 76H56V91H72V76Z" fill="#2F2F2F"/>
</svg>
